<svg width="63" height="62" viewBox="0 0 63 62" fill="none" xmlns="http://www.w3.org/2000/svg">
<rect x="0.421875" width="62" height="62" rx="31" fill="#95669D"/>
<path d="M38.803 19.1905H24.0411C19.6125 19.1905 16.6602 21.4048 16.6602 26.5714V36.9048C16.6602 42.0714 19.6125 44.2857 24.0411 44.2857H38.803C43.2316 44.2857 46.184 42.0714 46.184 36.9048V26.5714C46.184 21.4048 43.2316 19.1905 38.803 19.1905ZM39.4968 28.1805L34.8763 31.871C33.9021 32.6533 32.6621 33.0372 31.4221 33.0372C30.1821 33.0372 28.9273 32.6533 27.9678 31.871L23.3473 28.1805C22.8749 27.7967 22.8011 27.0881 23.1702 26.6157C23.554 26.1433 24.2478 26.0548 24.7202 26.4386L29.3406 30.1291C30.4625 31.0295 32.3668 31.0295 33.4887 30.1291L38.1092 26.4386C38.5816 26.0548 39.2902 26.1286 39.6592 26.6157C40.043 27.0881 39.9692 27.7967 39.4968 28.1805Z" fill="white"/>
</svg>
