<svg width="63" height="62" viewBox="0 0 63 62" fill="none" xmlns="http://www.w3.org/2000/svg">
<rect x="0.421875" width="62" height="62" rx="31" fill="#95669D"/>
<path d="M42.8785 26.8811C41.394 20.5601 35.6963 17.7143 30.6914 17.7143C30.6914 17.7143 30.6914 17.7143 30.6773 17.7143C25.6865 17.7143 19.9747 20.5464 18.4901 26.8674C16.836 33.9272 21.3036 39.9061 25.3472 43.6686C26.8458 45.0641 28.7686 45.7619 30.6914 45.7619C32.6142 45.7619 34.537 45.0641 36.0215 43.6686C40.065 39.9061 44.5327 33.9409 42.8785 26.8811ZM30.6914 33.7356C28.2314 33.7356 26.2379 31.8065 26.2379 29.4259C26.2379 27.0453 28.2314 25.1161 30.6914 25.1161C33.1515 25.1161 35.1449 27.0453 35.1449 29.4259C35.1449 31.8065 33.1515 33.7356 30.6914 33.7356Z" fill="white"/>
</svg>
