<svg width="63" height="62" viewBox="0 0 63 62" fill="none" xmlns="http://www.w3.org/2000/svg">
<rect x="0.421875" width="62" height="62" rx="31" fill="#95669D"/>
<path d="M30.2546 34.6316L27.9787 36.9075C27.4989 37.3873 26.7362 37.3873 26.2441 36.9199C26.1088 36.7845 25.9735 36.6615 25.8381 36.5262C24.571 35.2467 23.4269 33.9058 22.4058 32.5033C21.397 31.1009 20.5851 29.6984 19.9946 28.3083C19.4163 26.9058 19.1211 25.5649 19.1211 24.2854C19.1211 23.4489 19.2687 22.6492 19.564 21.9111C19.8592 21.1606 20.3267 20.4717 20.9787 19.8566C21.7661 19.0816 22.6272 18.7002 23.5376 18.7002C23.8821 18.7002 24.2265 18.774 24.5341 18.9216C24.8539 19.0693 25.1369 19.2907 25.3583 19.6106L28.2125 23.6334C28.4339 23.941 28.5938 24.2239 28.7046 24.4946C28.8153 24.7529 28.8768 25.0113 28.8768 25.245C28.8768 25.5403 28.7907 25.8355 28.6184 26.1185C28.4585 26.4014 28.2248 26.6967 27.9295 26.9919L26.9945 27.9638C26.8592 28.0991 26.7977 28.2591 26.7977 28.4559C26.7977 28.5543 26.81 28.6404 26.8346 28.7388C26.8715 28.8373 26.9084 28.9111 26.933 28.9849C27.1545 29.3909 27.5358 29.9199 28.0771 30.5596C28.6307 31.1993 29.2213 31.8513 29.861 32.5033C29.984 32.6264 30.1193 32.7494 30.2423 32.8724C30.7344 33.3522 30.7467 34.1395 30.2546 34.6316Z" fill="white"/>
<path d="M43.6886 38.788C43.6886 39.1324 43.6271 39.4892 43.5041 39.8337C43.4672 39.9321 43.4303 40.0305 43.381 40.1289C43.1719 40.5718 42.9013 40.9901 42.5445 41.3838C41.9417 42.0481 41.2774 42.5279 40.5269 42.8354C40.5146 42.8354 40.5023 42.8477 40.49 42.8477C39.7642 43.143 38.9768 43.3029 38.128 43.3029C36.8732 43.3029 35.5322 43.0077 34.1174 42.4049C32.7027 41.802 31.2879 40.9901 29.8855 39.969C29.4057 39.6122 28.9259 39.2555 28.4707 38.8741L32.4935 34.8513C32.838 35.1096 33.1456 35.3064 33.4039 35.4418C33.4654 35.4664 33.5392 35.5033 33.6254 35.5402C33.7238 35.5771 33.8222 35.5894 33.9329 35.5894C34.142 35.5894 34.302 35.5156 34.4373 35.3803L35.3723 34.4576C35.6798 34.15 35.9751 33.9163 36.258 33.7687C36.541 33.5964 36.8239 33.5103 37.1315 33.5103C37.3652 33.5103 37.6113 33.5595 37.8819 33.6702C38.1526 33.781 38.4355 33.9409 38.7431 34.15L42.8151 37.0411C43.135 37.2625 43.3564 37.5209 43.4918 37.8284C43.6148 38.136 43.6886 38.4435 43.6886 38.788Z" fill="white"/>
</svg>
